<svg width="50" height="52" viewBox="0 0 50 52" fill="none" xmlns="http://www.w3.org/2000/svg">
<path d="M39 6.39983C39 6.31772 38.9748 6.23759 38.9277 6.17033C38.8806 6.10306 38.814 6.05191 38.7368 6.02383L29.9368 2.82383L29.9364 2.82503C29.8501 2.79288 29.7553 2.79189 29.6684 2.82223L20.6084 5.97343L11.5456 2.42783C11.485 2.40415 11.4196 2.39561 11.3549 2.40294C11.2903 2.41027 11.2284 2.43325 11.1747 2.4699C11.1209 2.50655 11.0769 2.55575 11.0465 2.61324C11.016 2.67073 11.0001 2.73478 11 2.79983V25.5998C11 25.6803 11.0243 25.7589 11.0697 25.8253C11.1151 25.8917 11.1795 25.9429 11.2544 25.9722L20.4544 29.5722C20.5008 29.5905 20.5502 29.5999 20.6 29.5998C20.6444 29.5998 20.688 29.5906 20.7308 29.5758L20.7312 29.5774L29.7968 26.4242L38.4632 29.5758C38.5237 29.5975 38.5884 29.6044 38.6521 29.596C38.7157 29.5876 38.7765 29.5641 38.8292 29.5274C38.8819 29.4906 38.925 29.4416 38.9547 29.3846C38.9845 29.3275 39 29.2642 39 29.1998V6.39983ZM20.2 28.6138L11.8 25.3266V3.38583L20.2 6.67303V28.6138ZM29.4 25.7154L21 28.6374V6.68383L29.4 3.76223V25.7154ZM38.2 28.6286L30.2 25.7198V3.77103L38.2 6.67983V28.6286Z" fill="#484848" fill-opacity="0.5" stroke="#484848" stroke-opacity="0.5"/>
<path d="M2.50178 40H1.76314L3.8995 34.1818H4.62678L6.76314 40H6.0245L4.28587 35.1023H4.24041L2.50178 40ZM2.7745 37.7273H5.75178V38.3523H2.7745V37.7273ZM9.22621 40.0909C8.86257 40.0909 8.54155 39.9991 8.26314 39.8153C7.98473 39.6297 7.76693 39.3684 7.60973 39.0312C7.45253 38.6922 7.37393 38.2917 7.37393 37.8295C7.37393 37.3712 7.45253 36.9735 7.60973 36.6364C7.76693 36.2992 7.98568 36.0388 8.26598 35.8551C8.54628 35.6714 8.87015 35.5795 9.23757 35.5795C9.52166 35.5795 9.74609 35.6269 9.91087 35.7216C10.0775 35.8144 10.2044 35.9205 10.2915 36.0398C10.3806 36.1572 10.4497 36.2538 10.4989 36.3295H10.5558V34.1818H11.2262V40H10.5785V39.3295H10.4989C10.4497 39.4091 10.3796 39.5095 10.2887 39.6307C10.1978 39.75 10.0681 39.857 9.8995 39.9517C9.73094 40.0445 9.50651 40.0909 9.22621 40.0909ZM9.31712 39.4886C9.58606 39.4886 9.81333 39.4186 9.99893 39.2784C10.1845 39.1364 10.3256 38.9403 10.4222 38.6903C10.5188 38.4384 10.5671 38.1477 10.5671 37.8182C10.5671 37.4924 10.5198 37.2074 10.4251 36.9631C10.3304 36.7169 10.1902 36.5256 10.0046 36.3892C9.81901 36.2509 9.58984 36.1818 9.31712 36.1818C9.03303 36.1818 8.79628 36.2547 8.60689 36.4006C8.41939 36.5445 8.27829 36.7405 8.18359 36.9886C8.09079 37.2348 8.04439 37.5114 8.04439 37.8182C8.04439 38.1288 8.09174 38.411 8.18643 38.6648C8.28303 38.9167 8.42507 39.1174 8.61257 39.267C8.80197 39.4148 9.03681 39.4886 9.31712 39.4886ZM14.195 40.0909C13.8313 40.0909 13.5103 39.9991 13.2319 39.8153C12.9535 39.6297 12.7357 39.3684 12.5785 39.0312C12.4213 38.6922 12.3427 38.2917 12.3427 37.8295C12.3427 37.3712 12.4213 36.9735 12.5785 36.6364C12.7357 36.2992 12.9544 36.0388 13.2347 35.8551C13.515 35.6714 13.8389 35.5795 14.2063 35.5795C14.4904 35.5795 14.7148 35.6269 14.8796 35.7216C15.0463 35.8144 15.1732 35.9205 15.2603 36.0398C15.3493 36.1572 15.4184 36.2538 15.4677 36.3295H15.5245V34.1818H16.195V40H15.5472V39.3295H15.4677C15.4184 39.4091 15.3484 39.5095 15.2575 39.6307C15.1665 39.75 15.0368 39.857 14.8683 39.9517C14.6997 40.0445 14.4753 40.0909 14.195 40.0909ZM14.2859 39.4886C14.5548 39.4886 14.7821 39.4186 14.9677 39.2784C15.1533 39.1364 15.2944 38.9403 15.391 38.6903C15.4876 38.4384 15.5359 38.1477 15.5359 37.8182C15.5359 37.4924 15.4885 37.2074 15.3938 36.9631C15.2991 36.7169 15.159 36.5256 14.9734 36.3892C14.7878 36.2509 14.5586 36.1818 14.2859 36.1818C14.0018 36.1818 13.765 36.2547 13.5756 36.4006C13.3881 36.5445 13.247 36.7405 13.1523 36.9886C13.0595 37.2348 13.0131 37.5114 13.0131 37.8182C13.0131 38.1288 13.0605 38.411 13.1552 38.6648C13.2518 38.9167 13.3938 39.1174 13.5813 39.267C13.7707 39.4148 14.0056 39.4886 14.2859 39.4886ZM24.5387 36H23.8342C23.7925 35.7973 23.7196 35.6193 23.6154 35.4659C23.5131 35.3125 23.3881 35.1837 23.2404 35.0795C23.0946 34.9735 22.9326 34.8939 22.7546 34.8409C22.5766 34.7879 22.391 34.7614 22.1978 34.7614C21.8455 34.7614 21.5264 34.8504 21.2404 35.0284C20.9563 35.2064 20.73 35.4688 20.5614 35.8153C20.3948 36.1619 20.3114 36.5871 20.3114 37.0909C20.3114 37.5947 20.3948 38.0199 20.5614 38.3665C20.73 38.7131 20.9563 38.9754 21.2404 39.1534C21.5264 39.3314 21.8455 39.4205 22.1978 39.4205C22.391 39.4205 22.5766 39.3939 22.7546 39.3409C22.9326 39.2879 23.0946 39.2093 23.2404 39.1051C23.3881 38.9991 23.5131 38.8693 23.6154 38.7159C23.7196 38.5606 23.7925 38.3826 23.8342 38.1818H24.5387C24.4857 38.4792 24.3891 38.7453 24.2489 38.9801C24.1088 39.215 23.9345 39.4148 23.7262 39.5795C23.5179 39.7424 23.284 39.8665 23.0245 39.9517C22.7669 40.0369 22.4914 40.0795 22.1978 40.0795C21.7016 40.0795 21.2603 39.9583 20.8739 39.7159C20.4876 39.4735 20.1836 39.1288 19.962 38.6818C19.7404 38.2348 19.6296 37.7045 19.6296 37.0909C19.6296 36.4773 19.7404 35.947 19.962 35.5C20.1836 35.053 20.4876 34.7083 20.8739 34.4659C21.2603 34.2235 21.7016 34.1023 22.1978 34.1023C22.4914 34.1023 22.7669 34.1449 23.0245 34.2301C23.284 34.3153 23.5179 34.4403 23.7262 34.6051C23.9345 34.768 24.1088 34.9669 24.2489 35.2017C24.3891 35.4347 24.4857 35.7008 24.5387 36ZM26.8704 40.1023C26.5939 40.1023 26.3429 40.0502 26.1175 39.946C25.8922 39.84 25.7132 39.6875 25.5806 39.4886C25.448 39.2879 25.3817 39.0455 25.3817 38.7614C25.3817 38.5114 25.431 38.3087 25.5295 38.1534C25.628 37.9962 25.7596 37.8731 25.9244 37.7841C26.0891 37.6951 26.271 37.6288 26.4698 37.5852C26.6706 37.5398 26.8723 37.5038 27.0749 37.4773C27.3401 37.4432 27.555 37.4176 27.7198 37.4006C27.8865 37.3816 28.0077 37.3504 28.0835 37.3068C28.1611 37.2633 28.1999 37.1875 28.1999 37.0795V37.0568C28.1999 36.7765 28.1232 36.5587 27.9698 36.4034C27.8183 36.2481 27.5882 36.1705 27.2795 36.1705C26.9594 36.1705 26.7085 36.2405 26.5266 36.3807C26.3448 36.5208 26.217 36.6705 26.1431 36.8295L25.5067 36.6023C25.6204 36.3371 25.7719 36.1307 25.9613 35.983C26.1526 35.8333 26.3609 35.7292 26.5863 35.6705C26.8136 35.6098 27.0371 35.5795 27.2567 35.5795C27.3969 35.5795 27.5579 35.5966 27.7397 35.6307C27.9234 35.6629 28.1005 35.7301 28.271 35.8324C28.4433 35.9347 28.5863 36.089 28.6999 36.2955C28.8136 36.5019 28.8704 36.7784 28.8704 37.125V40H28.1999V39.4091H28.1658C28.1204 39.5038 28.0446 39.6051 27.9386 39.7131C27.8325 39.821 27.6914 39.9129 27.5153 39.9886C27.3391 40.0644 27.1242 40.1023 26.8704 40.1023ZM26.9727 39.5C27.2378 39.5 27.4613 39.4479 27.6431 39.3438C27.8268 39.2396 27.9651 39.1051 28.0579 38.9403C28.1526 38.7756 28.1999 38.6023 28.1999 38.4205V37.8068C28.1715 37.8409 28.109 37.8722 28.0124 37.9006C27.9177 37.9271 27.8079 37.9508 27.6829 37.9716C27.5598 37.9905 27.4395 38.0076 27.3221 38.0227C27.2066 38.036 27.1128 38.0473 27.0408 38.0568C26.8666 38.0795 26.7037 38.1165 26.5522 38.1676C26.4026 38.2169 26.2814 38.2917 26.1886 38.392C26.0977 38.4905 26.0522 38.625 26.0522 38.7955C26.0522 39.0284 26.1384 39.2045 26.3107 39.3239C26.485 39.4413 26.7056 39.5 26.9727 39.5ZM31.9918 35.6364V36.2045H29.7305V35.6364H31.9918ZM30.3896 34.5909H31.06V38.75C31.06 38.9394 31.0875 39.0814 31.1424 39.1761C31.1992 39.2689 31.2712 39.3314 31.3583 39.3636C31.4473 39.3939 31.5411 39.4091 31.6396 39.4091C31.7134 39.4091 31.774 39.4053 31.8214 39.3977C31.8687 39.3883 31.9066 39.3807 31.935 39.375L32.0714 39.9773C32.0259 39.9943 31.9625 40.0114 31.881 40.0284C31.7996 40.0473 31.6964 40.0568 31.5714 40.0568C31.382 40.0568 31.1964 40.0161 31.0146 39.9347C30.8346 39.8532 30.685 39.7292 30.5657 39.5625C30.4483 39.3958 30.3896 39.1856 30.3896 38.9318V34.5909ZM34.2844 40.1023C34.0079 40.1023 33.757 40.0502 33.5316 39.946C33.3062 39.84 33.1272 39.6875 32.9947 39.4886C32.8621 39.2879 32.7958 39.0455 32.7958 38.7614C32.7958 38.5114 32.8451 38.3087 32.9435 38.1534C33.042 37.9962 33.1737 37.8731 33.3384 37.7841C33.5032 37.6951 33.685 37.6288 33.8839 37.5852C34.0846 37.5398 34.2863 37.5038 34.489 37.4773C34.7541 37.4432 34.9691 37.4176 35.1339 37.4006C35.3005 37.3816 35.4218 37.3504 35.4975 37.3068C35.5752 37.2633 35.614 37.1875 35.614 37.0795V37.0568C35.614 36.7765 35.5373 36.5587 35.3839 36.4034C35.2324 36.2481 35.0022 36.1705 34.6935 36.1705C34.3735 36.1705 34.1225 36.2405 33.9407 36.3807C33.7589 36.5208 33.631 36.6705 33.5572 36.8295L32.9208 36.6023C33.0344 36.3371 33.186 36.1307 33.3754 35.983C33.5666 35.8333 33.775 35.7292 34.0004 35.6705C34.2276 35.6098 34.4511 35.5795 34.6708 35.5795C34.811 35.5795 34.9719 35.5966 35.1538 35.6307C35.3375 35.6629 35.5146 35.7301 35.685 35.8324C35.8574 35.9347 36.0004 36.089 36.114 36.2955C36.2276 36.5019 36.2844 36.7784 36.2844 37.125V40H35.614V39.4091H35.5799C35.5344 39.5038 35.4587 39.6051 35.3526 39.7131C35.2466 39.821 35.1055 39.9129 34.9293 39.9886C34.7532 40.0644 34.5382 40.1023 34.2844 40.1023ZM34.3867 39.5C34.6519 39.5 34.8754 39.4479 35.0572 39.3438C35.2409 39.2396 35.3791 39.1051 35.4719 38.9403C35.5666 38.7756 35.614 38.6023 35.614 38.4205V37.8068C35.5856 37.8409 35.5231 37.8722 35.4265 37.9006C35.3318 37.9271 35.2219 37.9508 35.0969 37.9716C34.9738 37.9905 34.8536 38.0076 34.7362 38.0227C34.6206 38.036 34.5269 38.0473 34.4549 38.0568C34.2807 38.0795 34.1178 38.1165 33.9663 38.1676C33.8166 38.2169 33.6954 38.2917 33.6026 38.392C33.5117 38.4905 33.4663 38.625 33.4663 38.7955C33.4663 39.0284 33.5524 39.2045 33.7248 39.3239C33.899 39.4413 34.1197 39.5 34.3867 39.5ZM38.1786 34.1818V40H37.5082V34.1818H38.1786ZM41.1793 40.0909C40.7854 40.0909 40.4397 39.9972 40.1424 39.8097C39.8469 39.6222 39.6159 39.3598 39.4492 39.0227C39.2844 38.6856 39.2021 38.2917 39.2021 37.8409C39.2021 37.3864 39.2844 36.9896 39.4492 36.6506C39.6159 36.3116 39.8469 36.0483 40.1424 35.8608C40.4397 35.6733 40.7854 35.5795 41.1793 35.5795C41.5733 35.5795 41.918 35.6733 42.2134 35.8608C42.5108 36.0483 42.7418 36.3116 42.9066 36.6506C43.0733 36.9896 43.1566 37.3864 43.1566 37.8409C43.1566 38.2917 43.0733 38.6856 42.9066 39.0227C42.7418 39.3598 42.5108 39.6222 42.2134 39.8097C41.918 39.9972 41.5733 40.0909 41.1793 40.0909ZM41.1793 39.4886C41.4786 39.4886 41.7248 39.4119 41.918 39.2585C42.1112 39.1051 42.2541 38.9034 42.3469 38.6534C42.4397 38.4034 42.4862 38.1326 42.4862 37.8409C42.4862 37.5492 42.4397 37.2775 42.3469 37.0256C42.2541 36.7737 42.1112 36.5701 41.918 36.4148C41.7248 36.2595 41.4786 36.1818 41.1793 36.1818C40.8801 36.1818 40.6339 36.2595 40.4407 36.4148C40.2475 36.5701 40.1045 36.7737 40.0117 37.0256C39.9189 37.2775 39.8725 37.5492 39.8725 37.8409C39.8725 38.1326 39.9189 38.4034 40.0117 38.6534C40.1045 38.9034 40.2475 39.1051 40.4407 39.2585C40.6339 39.4119 40.8801 39.4886 41.1793 39.4886ZM45.9414 41.7273C45.6175 41.7273 45.3391 41.6856 45.1062 41.6023C44.8732 41.5208 44.6791 41.4129 44.5238 41.2784C44.3704 41.1458 44.2482 41.0038 44.1573 40.8523L44.6914 40.4773C44.752 40.5568 44.8287 40.6477 44.9215 40.75C45.0143 40.8542 45.1412 40.9441 45.3022 41.0199C45.4651 41.0975 45.6781 41.1364 45.9414 41.1364C46.2937 41.1364 46.5844 41.0511 46.8136 40.8807C47.0427 40.7102 47.1573 40.4432 47.1573 40.0795V39.1932H47.1005C47.0513 39.2727 46.9812 39.3712 46.8903 39.4886C46.8013 39.6042 46.6725 39.7074 46.5039 39.7983C46.3372 39.8873 46.1119 39.9318 45.8278 39.9318C45.4755 39.9318 45.1592 39.8485 44.8789 39.6818C44.6005 39.5152 44.3799 39.2727 44.217 38.9545C44.056 38.6364 43.9755 38.25 43.9755 37.7955C43.9755 37.3485 44.0541 36.9593 44.2113 36.6278C44.3685 36.2945 44.5872 36.0369 44.8675 35.8551C45.1478 35.6714 45.4717 35.5795 45.8391 35.5795C46.1232 35.5795 46.3486 35.6269 46.5153 35.7216C46.6838 35.8144 46.8126 35.9205 46.9016 36.0398C46.9925 36.1572 47.0626 36.2538 47.1119 36.3295H47.18V35.6364H47.8278V40.125C47.8278 40.5 47.7425 40.8049 47.5721 41.0398C47.4035 41.2765 47.1763 41.4498 46.8903 41.5597C46.6062 41.6714 46.2899 41.7273 45.9414 41.7273ZM45.9187 39.3295C46.1876 39.3295 46.4149 39.268 46.6005 39.1449C46.7861 39.0218 46.9272 38.8447 47.0238 38.6136C47.1204 38.3826 47.1687 38.1061 47.1687 37.7841C47.1687 37.4697 47.1213 37.1922 47.0266 36.9517C46.9319 36.7112 46.7918 36.5227 46.6062 36.3864C46.4206 36.25 46.1914 36.1818 45.9187 36.1818C45.6346 36.1818 45.3978 36.2538 45.2085 36.3977C45.021 36.5417 44.8799 36.7348 44.7852 36.9773C44.6924 37.2197 44.646 37.4886 44.646 37.7841C44.646 38.0871 44.6933 38.3551 44.788 38.5881C44.8846 38.8191 45.0266 39.0009 45.2141 39.1335C45.4035 39.2642 45.6384 39.3295 45.9187 39.3295Z" fill="#0F172A"/>
</svg>
