<svg width="50" height="52" viewBox="0 0 50 52" fill="none" xmlns="http://www.w3.org/2000/svg">
<path d="M39.2666 15.3333L36.6007 18L33.9333 15.3333" fill="#484848" fill-opacity="0.5"/>
<path d="M21.2222 20L29.2222 12L21.2222 20Z" fill="#484848" fill-opacity="0.5"/>
<path d="M21.8888 13.3333C22.257 13.3333 22.5555 13.0349 22.5555 12.6667C22.5555 12.2985 22.257 12 21.8888 12C21.5206 12 21.2222 12.2985 21.2222 12.6667C21.2222 13.0349 21.5206 13.3333 21.8888 13.3333Z" fill="#484848" fill-opacity="0.5"/>
<path d="M28.5555 20C28.9237 20 29.2222 19.7015 29.2222 19.3333C29.2222 18.9651 28.9237 18.6667 28.5555 18.6667C28.1873 18.6667 27.8888 18.9651 27.8888 19.3333C27.8888 19.7015 28.1873 20 28.5555 20Z" fill="#484848" fill-opacity="0.5"/>
<path d="M39.2666 15.3333L36.6007 18L33.9333 15.3333M36.9268 17.3333C36.9752 16.8956 37 16.4507 37 16C37 9.37258 31.6274 4 25 4C18.3726 4 13 9.37258 13 16C13 22.6274 18.3726 28 25 28C28.7697 28 32.1334 26.2618 34.3333 23.5431M21.2222 20L29.2222 12M22.5555 12.6667C22.5555 13.0349 22.257 13.3333 21.8888 13.3333C21.5206 13.3333 21.2222 13.0349 21.2222 12.6667C21.2222 12.2985 21.5206 12 21.8888 12C22.257 12 22.5555 12.2985 22.5555 12.6667ZM29.2222 19.3333C29.2222 19.7015 28.9237 20 28.5555 20C28.1873 20 27.8888 19.7015 27.8888 19.3333C27.8888 18.9651 28.1873 18.6667 28.5555 18.6667C28.9237 18.6667 29.2222 18.9651 29.2222 19.3333Z" stroke="#484848" stroke-opacity="0.5" stroke-width="2" stroke-linecap="round" stroke-linejoin="round"/>
<path d="M1.68892 40V34.1818H2.39347V36.7727H5.49574V34.1818H6.20028V40H5.49574V37.3977H2.39347V40H1.68892ZM8.80398 40.1023C8.52746 40.1023 8.27652 40.0502 8.05114 39.946C7.82576 39.84 7.64678 39.6875 7.5142 39.4886C7.38163 39.2879 7.31534 39.0455 7.31534 38.7614C7.31534 38.5114 7.36458 38.3087 7.46307 38.1534C7.56155 37.9962 7.69318 37.8731 7.85795 37.7841C8.02273 37.6951 8.20455 37.6288 8.40341 37.5852C8.60417 37.5398 8.80587 37.5038 9.00852 37.4773C9.27367 37.4432 9.48864 37.4176 9.65341 37.4006C9.82008 37.3816 9.94129 37.3504 10.017 37.3068C10.0947 37.2633 10.1335 37.1875 10.1335 37.0795V37.0568C10.1335 36.7765 10.0568 36.5587 9.90341 36.4034C9.75189 36.2481 9.52178 36.1705 9.21307 36.1705C8.89299 36.1705 8.64205 36.2405 8.46023 36.3807C8.27841 36.5208 8.15057 36.6705 8.0767 36.8295L7.44034 36.6023C7.55398 36.3371 7.70549 36.1307 7.89489 35.983C8.08617 35.8333 8.29451 35.7292 8.51989 35.6705C8.74716 35.6098 8.97064 35.5795 9.19034 35.5795C9.33049 35.5795 9.49148 35.5966 9.6733 35.6307C9.85701 35.6629 10.0341 35.7301 10.2045 35.8324C10.3769 35.9347 10.5199 36.089 10.6335 36.2955C10.7472 36.5019 10.804 36.7784 10.804 37.125V40H10.1335V39.4091H10.0994C10.054 39.5038 9.97822 39.6051 9.87216 39.7131C9.7661 39.821 9.625 39.9129 9.44886 39.9886C9.27273 40.0644 9.05777 40.1023 8.80398 40.1023ZM8.90625 39.5C9.1714 39.5 9.39489 39.4479 9.5767 39.3438C9.76042 39.2396 9.89867 39.1051 9.99148 38.9403C10.0862 38.7756 10.1335 38.6023 10.1335 38.4205V37.8068C10.1051 37.8409 10.0426 37.8722 9.94602 37.9006C9.85133 37.9271 9.74148 37.9508 9.61648 37.9716C9.49337 37.9905 9.37311 38.0076 9.25568 38.0227C9.14015 38.036 9.0464 38.0473 8.97443 38.0568C8.80019 38.0795 8.63731 38.1165 8.4858 38.1676C8.33617 38.2169 8.21496 38.2917 8.12216 38.392C8.03125 38.4905 7.9858 38.625 7.9858 38.7955C7.9858 39.0284 8.07197 39.2045 8.24432 39.3239C8.41856 39.4413 8.6392 39.5 8.90625 39.5ZM12.0277 41.6364V35.6364H12.6754V36.3295H12.755C12.8042 36.2538 12.8724 36.1572 12.9595 36.0398C13.0485 35.9205 13.1754 35.8144 13.3402 35.7216C13.5069 35.6269 13.7322 35.5795 14.0163 35.5795C14.3838 35.5795 14.7076 35.6714 14.9879 35.8551C15.2682 36.0388 15.487 36.2992 15.6442 36.6364C15.8014 36.9735 15.88 37.3712 15.88 37.8295C15.88 38.2917 15.8014 38.6922 15.6442 39.0312C15.487 39.3684 15.2692 39.6297 14.9908 39.8153C14.7124 39.9991 14.3913 40.0909 14.0277 40.0909C13.7474 40.0909 13.523 40.0445 13.3544 39.9517C13.1858 39.857 13.0561 39.75 12.9652 39.6307C12.8743 39.5095 12.8042 39.4091 12.755 39.3295H12.6982V41.6364H12.0277ZM12.6868 37.8182C12.6868 38.1477 12.7351 38.4384 12.8317 38.6903C12.9283 38.9403 13.0694 39.1364 13.255 39.2784C13.4406 39.4186 13.6679 39.4886 13.9368 39.4886C14.2171 39.4886 14.451 39.4148 14.6385 39.267C14.8279 39.1174 14.9699 38.9167 15.0646 38.6648C15.1612 38.411 15.2095 38.1288 15.2095 37.8182C15.2095 37.5114 15.1622 37.2348 15.0675 36.9886C14.9747 36.7405 14.8336 36.5445 14.6442 36.4006C14.4567 36.2547 14.2209 36.1818 13.9368 36.1818C13.6641 36.1818 13.4349 36.2509 13.2493 36.3892C13.0637 36.5256 12.9235 36.7169 12.8288 36.9631C12.7341 37.2074 12.6868 37.4924 12.6868 37.8182ZM16.9027 41.6364V35.6364H17.5504V36.3295H17.63C17.6792 36.2538 17.7474 36.1572 17.8345 36.0398C17.9235 35.9205 18.0504 35.8144 18.2152 35.7216C18.3819 35.6269 18.6072 35.5795 18.8913 35.5795C19.2588 35.5795 19.5826 35.6714 19.8629 35.8551C20.1432 36.0388 20.362 36.2992 20.5192 36.6364C20.6764 36.9735 20.755 37.3712 20.755 37.8295C20.755 38.2917 20.6764 38.6922 20.5192 39.0312C20.362 39.3684 20.1442 39.6297 19.8658 39.8153C19.5874 39.9991 19.2663 40.0909 18.9027 40.0909C18.6224 40.0909 18.398 40.0445 18.2294 39.9517C18.0608 39.857 17.9311 39.75 17.8402 39.6307C17.7493 39.5095 17.6792 39.4091 17.63 39.3295H17.5732V41.6364H16.9027ZM17.5618 37.8182C17.5618 38.1477 17.6101 38.4384 17.7067 38.6903C17.8033 38.9403 17.9444 39.1364 18.13 39.2784C18.3156 39.4186 18.5429 39.4886 18.8118 39.4886C19.0921 39.4886 19.326 39.4148 19.5135 39.267C19.7029 39.1174 19.8449 38.9167 19.9396 38.6648C20.0362 38.411 20.0845 38.1288 20.0845 37.8182C20.0845 37.5114 20.0372 37.2348 19.9425 36.9886C19.8497 36.7405 19.7086 36.5445 19.5192 36.4006C19.3317 36.2547 19.0959 36.1818 18.8118 36.1818C18.5391 36.1818 18.3099 36.2509 18.1243 36.3892C17.9387 36.5256 17.7985 36.7169 17.7038 36.9631C17.6091 37.2074 17.5618 37.4924 17.5618 37.8182ZM22.0533 41.6364C21.9396 41.6364 21.8383 41.6269 21.7493 41.608C21.6603 41.5909 21.5987 41.5739 21.5646 41.5568L21.7351 40.9659C21.898 41.0076 22.0419 41.0227 22.1669 41.0114C22.2919 41 22.4027 40.9441 22.4993 40.8438C22.5978 40.7453 22.6877 40.5852 22.7692 40.3636L22.8942 40.0227L21.2805 35.6364H22.0078L23.2124 39.1136H23.2578L24.4624 35.6364H25.1896L23.3374 40.6364C23.254 40.8617 23.1508 41.0483 23.0277 41.196C22.9046 41.3456 22.7616 41.4564 22.5987 41.5284C22.4377 41.6004 22.2559 41.6364 22.0533 41.6364ZM28.995 37.375V40H28.3246V34.1818H28.995V36.3182H29.0518C29.1541 36.0928 29.3075 35.9138 29.5121 35.7812C29.7185 35.6468 29.9931 35.5795 30.3359 35.5795C30.6333 35.5795 30.8937 35.6392 31.1172 35.7585C31.3407 35.8759 31.514 36.0568 31.6371 36.3011C31.7621 36.5436 31.8246 36.8523 31.8246 37.2273V40H31.1541V37.2727C31.1541 36.9261 31.0642 36.6581 30.8842 36.4688C30.7062 36.2775 30.459 36.1818 30.1428 36.1818C29.9231 36.1818 29.7261 36.2282 29.5518 36.321C29.3795 36.4138 29.2431 36.5492 29.1428 36.7273C29.0443 36.9053 28.995 37.1212 28.995 37.375ZM34.8239 40.0909C34.4299 40.0909 34.0843 39.9972 33.7869 39.8097C33.4915 39.6222 33.2604 39.3598 33.0938 39.0227C32.929 38.6856 32.8466 38.2917 32.8466 37.8409C32.8466 37.3864 32.929 36.9896 33.0938 36.6506C33.2604 36.3116 33.4915 36.0483 33.7869 35.8608C34.0843 35.6733 34.4299 35.5795 34.8239 35.5795C35.2178 35.5795 35.5625 35.6733 35.858 35.8608C36.1553 36.0483 36.3864 36.3116 36.5511 36.6506C36.7178 36.9896 36.8011 37.3864 36.8011 37.8409C36.8011 38.2917 36.7178 38.6856 36.5511 39.0227C36.3864 39.3598 36.1553 39.6222 35.858 39.8097C35.5625 39.9972 35.2178 40.0909 34.8239 40.0909ZM34.8239 39.4886C35.1231 39.4886 35.3693 39.4119 35.5625 39.2585C35.7557 39.1051 35.8987 38.9034 35.9915 38.6534C36.0843 38.4034 36.1307 38.1326 36.1307 37.8409C36.1307 37.5492 36.0843 37.2775 35.9915 37.0256C35.8987 36.7737 35.7557 36.5701 35.5625 36.4148C35.3693 36.2595 35.1231 36.1818 34.8239 36.1818C34.5246 36.1818 34.2784 36.2595 34.0852 36.4148C33.892 36.5701 33.7491 36.7737 33.6562 37.0256C33.5634 37.2775 33.517 37.5492 33.517 37.8409C33.517 38.1326 33.5634 38.4034 33.6562 38.6534C33.7491 38.9034 33.892 39.1051 34.0852 39.2585C34.2784 39.4119 34.5246 39.4886 34.8239 39.4886ZM40.5746 38.2159V35.6364H41.245V40H40.5746V39.2614H40.5291C40.4268 39.483 40.2678 39.6714 40.0518 39.8267C39.8359 39.9801 39.5632 40.0568 39.2337 40.0568C38.9609 40.0568 38.7185 39.9972 38.5064 39.8778C38.2943 39.7566 38.1276 39.5748 38.0064 39.3324C37.8852 39.0881 37.8246 38.7803 37.8246 38.4091V35.6364H38.495V38.3636C38.495 38.6818 38.584 38.9356 38.7621 39.125C38.942 39.3144 39.1712 39.4091 39.4496 39.4091C39.6162 39.4091 39.7857 39.3665 39.9581 39.2812C40.1323 39.196 40.2782 39.0653 40.3956 38.8892C40.5149 38.7131 40.5746 38.4886 40.5746 38.2159ZM42.473 40V35.6364H43.1207V36.2955H43.1662C43.2457 36.0795 43.3897 35.9044 43.598 35.7699C43.8063 35.6354 44.0412 35.5682 44.3026 35.5682C44.3518 35.5682 44.4134 35.5691 44.4872 35.571C44.5611 35.5729 44.617 35.5758 44.6548 35.5795V36.2614C44.6321 36.2557 44.58 36.2472 44.4986 36.2358C44.419 36.2225 44.3348 36.2159 44.2457 36.2159C44.0336 36.2159 43.8442 36.2604 43.6776 36.3494C43.5128 36.4366 43.3821 36.5578 43.2855 36.7131C43.1908 36.8665 43.1435 37.0417 43.1435 37.2386V40H42.473ZM48.5405 36.6136L47.9382 36.7841C47.9003 36.6837 47.8445 36.5862 47.7706 36.4915C47.6986 36.3949 47.6001 36.3153 47.4751 36.2528C47.3501 36.1903 47.1901 36.1591 46.995 36.1591C46.728 36.1591 46.5054 36.2206 46.3274 36.3438C46.1513 36.465 46.0632 36.6193 46.0632 36.8068C46.0632 36.9735 46.1238 37.1051 46.245 37.2017C46.3662 37.2983 46.5556 37.3788 46.8132 37.4432L47.4609 37.6023C47.8511 37.697 48.1418 37.8419 48.3331 38.0369C48.5244 38.2301 48.62 38.4792 48.62 38.7841C48.62 39.0341 48.5481 39.2576 48.4041 39.4545C48.2621 39.6515 48.0632 39.8068 47.8075 39.9205C47.5518 40.0341 47.2545 40.0909 46.9155 40.0909C46.4704 40.0909 46.102 39.9943 45.8104 39.8011C45.5187 39.608 45.334 39.3258 45.2564 38.9545L45.8928 38.7955C45.9534 39.0303 46.0679 39.2064 46.2365 39.3239C46.407 39.4413 46.6295 39.5 46.9041 39.5C47.2166 39.5 47.4647 39.4337 47.6484 39.3011C47.834 39.1667 47.9268 39.0057 47.9268 38.8182C47.9268 38.6667 47.8738 38.5398 47.7678 38.4375C47.6617 38.3333 47.4988 38.2557 47.2791 38.2045L46.5518 38.0341C46.1522 37.9394 45.8587 37.7926 45.6712 37.5938C45.4856 37.393 45.3928 37.142 45.3928 36.8409C45.3928 36.5947 45.4619 36.3769 45.6001 36.1875C45.7403 35.9981 45.9306 35.8494 46.1712 35.7415C46.4136 35.6335 46.6882 35.5795 46.995 35.5795C47.4268 35.5795 47.7659 35.6742 48.0121 35.8636C48.2602 36.053 48.4363 36.303 48.5405 36.6136ZM20.9574 47.0909C20.9574 47.7045 20.8466 48.2348 20.625 48.6818C20.4034 49.1288 20.0994 49.4735 19.7131 49.7159C19.3267 49.9583 18.8854 50.0795 18.3892 50.0795C17.893 50.0795 17.4517 49.9583 17.0653 49.7159C16.679 49.4735 16.375 49.1288 16.1534 48.6818C15.9318 48.2348 15.821 47.7045 15.821 47.0909C15.821 46.4773 15.9318 45.947 16.1534 45.5C16.375 45.053 16.679 44.7083 17.0653 44.4659C17.4517 44.2235 17.893 44.1023 18.3892 44.1023C18.8854 44.1023 19.3267 44.2235 19.7131 44.4659C20.0994 44.7083 20.4034 45.053 20.625 45.5C20.8466 45.947 20.9574 46.4773 20.9574 47.0909ZM20.2756 47.0909C20.2756 46.5871 20.1913 46.1619 20.0227 45.8153C19.8561 45.4688 19.6297 45.2064 19.3438 45.0284C19.0597 44.8504 18.7415 44.7614 18.3892 44.7614C18.0369 44.7614 17.7178 44.8504 17.4318 45.0284C17.1477 45.2064 16.9214 45.4688 16.7528 45.8153C16.5862 46.1619 16.5028 46.5871 16.5028 47.0909C16.5028 47.5947 16.5862 48.0199 16.7528 48.3665C16.9214 48.7131 17.1477 48.9754 17.4318 49.1534C17.7178 49.3314 18.0369 49.4205 18.3892 49.4205C18.7415 49.4205 19.0597 49.3314 19.3438 49.1534C19.6297 48.9754 19.8561 48.7131 20.0227 48.3665C20.1913 48.0199 20.2756 47.5947 20.2756 47.0909ZM23.9943 45.6364V46.2045H21.642V45.6364H23.9943ZM22.3466 50V45.0341C22.3466 44.7841 22.4053 44.5758 22.5227 44.4091C22.6402 44.2424 22.7926 44.1174 22.9801 44.0341C23.1676 43.9508 23.3655 43.9091 23.5739 43.9091C23.7386 43.9091 23.8731 43.9223 23.9773 43.9489C24.0814 43.9754 24.1591 44 24.2102 44.0227L24.017 44.6023C23.983 44.5909 23.9356 44.5767 23.875 44.5597C23.8163 44.5426 23.7386 44.5341 23.642 44.5341C23.4205 44.5341 23.2604 44.59 23.1619 44.7017C23.0653 44.8134 23.017 44.9773 23.017 45.1932V50H22.3466ZM26.8771 45.6364V46.2045H24.5249V45.6364H26.8771ZM25.2294 50V45.0341C25.2294 44.7841 25.2881 44.5758 25.4055 44.4091C25.523 44.2424 25.6754 44.1174 25.8629 44.0341C26.0504 43.9508 26.2483 43.9091 26.4567 43.9091C26.6214 43.9091 26.7559 43.9223 26.8601 43.9489C26.9643 43.9754 27.0419 44 27.093 44.0227L26.8999 44.6023C26.8658 44.5909 26.8184 44.5767 26.7578 44.5597C26.6991 44.5426 26.6214 44.5341 26.5249 44.5341C26.3033 44.5341 26.1432 44.59 26.0447 44.7017C25.9482 44.8134 25.8999 44.9773 25.8999 45.1932V50H25.2294ZM29.4666 50.0909C29.0462 50.0909 28.6835 49.9981 28.3786 49.8125C28.0755 49.625 27.8416 49.3636 27.6768 49.0284C27.514 48.6913 27.4325 48.2992 27.4325 47.8523C27.4325 47.4053 27.514 47.0114 27.6768 46.6705C27.8416 46.3277 28.0708 46.0606 28.3643 45.8693C28.6598 45.6761 29.0045 45.5795 29.3984 45.5795C29.6257 45.5795 29.8501 45.6174 30.0717 45.6932C30.2933 45.7689 30.495 45.892 30.6768 46.0625C30.8587 46.2311 31.0036 46.4545 31.1115 46.733C31.2195 47.0114 31.2734 47.3542 31.2734 47.7614V48.0455H27.9098V47.4659H30.5916C30.5916 47.2197 30.5424 47 30.4439 46.8068C30.3473 46.6136 30.209 46.4612 30.0291 46.3494C29.8511 46.2377 29.6409 46.1818 29.3984 46.1818C29.1314 46.1818 28.9003 46.2481 28.7053 46.3807C28.5121 46.5114 28.3634 46.6818 28.2592 46.892C28.1551 47.1023 28.103 47.3277 28.103 47.5682V47.9545C28.103 48.2841 28.1598 48.5634 28.2734 48.7926C28.389 49.0199 28.549 49.1932 28.7536 49.3125C28.9581 49.4299 29.1958 49.4886 29.4666 49.4886C29.6428 49.4886 29.8018 49.464 29.9439 49.4148C30.0878 49.3636 30.2119 49.2879 30.3161 49.1875C30.4202 49.0852 30.5007 48.9583 30.5575 48.8068L31.2053 48.9886C31.1371 49.2083 31.0225 49.4015 30.8615 49.5682C30.7005 49.733 30.5017 49.8617 30.2649 49.9545C30.0282 50.0455 29.7621 50.0909 29.4666 50.0909ZM32.2933 50V45.6364H32.9411V46.2955H32.9865C33.0661 46.0795 33.21 45.9044 33.4183 45.7699C33.6267 45.6354 33.8615 45.5682 34.1229 45.5682C34.1721 45.5682 34.2337 45.5691 34.3075 45.571C34.3814 45.5729 34.4373 45.5758 34.4751 45.5795V46.2614C34.4524 46.2557 34.4003 46.2472 34.3189 46.2358C34.2393 46.2225 34.1551 46.2159 34.0661 46.2159C33.8539 46.2159 33.6645 46.2604 33.4979 46.3494C33.3331 46.4366 33.2024 46.5578 33.1058 46.7131C33.0111 46.8665 32.9638 47.0417 32.9638 47.2386V50H32.2933Z" fill="#0F172A"/>
</svg>
