<svg width="50" height="52" viewBox="0 0 50 52" fill="none" xmlns="http://www.w3.org/2000/svg">
<circle cx="25" cy="18.2891" r="12.7109" stroke="#484848" stroke-opacity="0.5" stroke-width="2"/>
<line x1="14.8358" y1="10.8837" x2="35.7003" y2="25.2147" stroke="#484848" stroke-opacity="0.5" stroke-width="2"/>
<line x1="25.4038" y1="5.17383" x2="25.4038" y2="31.4034" stroke="#484848" stroke-opacity="0.5" stroke-width="2"/>
<line x1="14.318" y1="25.2025" x2="35.2534" y2="11.4916" stroke="#484848" stroke-opacity="0.5" stroke-width="2"/>
<path d="M7.45668 35.6364C7.42259 35.3485 7.28433 35.125 7.0419 34.9659C6.79948 34.8068 6.50213 34.7273 6.14986 34.7273C5.89228 34.7273 5.6669 34.7689 5.47372 34.8523C5.28243 34.9356 5.13281 35.0502 5.02486 35.196C4.9188 35.3419 4.86577 35.5076 4.86577 35.6932C4.86577 35.8485 4.9027 35.982 4.97656 36.0938C5.05232 36.2036 5.14891 36.2955 5.26634 36.3693C5.38376 36.4413 5.50687 36.5009 5.63565 36.5483C5.76444 36.5937 5.88281 36.6307 5.99077 36.6591L6.58168 36.8182C6.73319 36.858 6.90175 36.9129 7.08736 36.983C7.27486 37.053 7.45384 37.1487 7.62429 37.2699C7.79664 37.3892 7.93868 37.5426 8.05043 37.7301C8.16217 37.9176 8.21804 38.1477 8.21804 38.4205C8.21804 38.7348 8.13565 39.0189 7.97088 39.2727C7.808 39.5265 7.56937 39.7282 7.25497 39.8778C6.94247 40.0275 6.56274 40.1023 6.11577 40.1023C5.6991 40.1023 5.3383 40.035 5.03338 39.9006C4.73035 39.7661 4.49171 39.5786 4.31747 39.3381C4.14512 39.0975 4.04759 38.8182 4.02486 38.5H4.75213C4.77107 38.7197 4.84493 38.9015 4.97372 39.0455C5.1044 39.1875 5.26918 39.2936 5.46804 39.3636C5.6688 39.4318 5.88471 39.4659 6.11577 39.4659C6.38471 39.4659 6.62618 39.4223 6.8402 39.3352C7.05421 39.2462 7.22372 39.1231 7.34872 38.9659C7.47372 38.8068 7.53622 38.6212 7.53622 38.4091C7.53622 38.2159 7.48224 38.0587 7.37429 37.9375C7.26634 37.8163 7.12429 37.7178 6.94815 37.642C6.77202 37.5663 6.58168 37.5 6.37713 37.4432L5.66122 37.2386C5.20668 37.108 4.84683 36.9214 4.58168 36.679C4.31652 36.4366 4.18395 36.1193 4.18395 35.7273C4.18395 35.4015 4.27202 35.1174 4.44815 34.875C4.62618 34.6307 4.86482 34.4413 5.16406 34.3068C5.4652 34.1705 5.80137 34.1023 6.17259 34.1023C6.54759 34.1023 6.88092 34.1695 7.17259 34.304C7.46425 34.4366 7.69531 34.6184 7.86577 34.8494C8.03812 35.0805 8.12902 35.3428 8.13849 35.6364H7.45668ZM9.28551 41.6364V35.6364H9.93324V36.3295H10.0128C10.062 36.2538 10.1302 36.1572 10.2173 36.0398C10.3063 35.9205 10.4332 35.8144 10.598 35.7216C10.7647 35.6269 10.9901 35.5795 11.2741 35.5795C11.6416 35.5795 11.9654 35.6714 12.2457 35.8551C12.526 36.0388 12.7448 36.2992 12.902 36.6364C13.0592 36.9735 13.1378 37.3712 13.1378 37.8295C13.1378 38.2917 13.0592 38.6922 12.902 39.0312C12.7448 39.3684 12.527 39.6297 12.2486 39.8153C11.9702 39.9991 11.6491 40.0909 11.2855 40.0909C11.0052 40.0909 10.7808 40.0445 10.6122 39.9517C10.4437 39.857 10.3139 39.75 10.223 39.6307C10.1321 39.5095 10.062 39.4091 10.0128 39.3295H9.95597V41.6364H9.28551ZM9.9446 37.8182C9.9446 38.1477 9.9929 38.4384 10.0895 38.6903C10.1861 38.9403 10.3272 39.1364 10.5128 39.2784C10.6984 39.4186 10.9257 39.4886 11.1946 39.4886C11.4749 39.4886 11.7088 39.4148 11.8963 39.267C12.0857 39.1174 12.2277 38.9167 12.3224 38.6648C12.419 38.411 12.4673 38.1288 12.4673 37.8182C12.4673 37.5114 12.42 37.2348 12.3253 36.9886C12.2325 36.7405 12.0914 36.5445 11.902 36.4006C11.7145 36.2547 11.4787 36.1818 11.1946 36.1818C10.9219 36.1818 10.6927 36.2509 10.5071 36.3892C10.3215 36.5256 10.1813 36.7169 10.0866 36.9631C9.99195 37.2074 9.9446 37.4924 9.9446 37.8182ZM14.1605 40V35.6364H14.831V40H14.1605ZM14.5014 34.9091C14.3707 34.9091 14.258 34.8646 14.1634 34.7756C14.0705 34.6866 14.0241 34.5795 14.0241 34.4545C14.0241 34.3295 14.0705 34.2225 14.1634 34.1335C14.258 34.0445 14.3707 34 14.5014 34C14.6321 34 14.7438 34.0445 14.8366 34.1335C14.9313 34.2225 14.9787 34.3295 14.9787 34.4545C14.9787 34.5795 14.9313 34.6866 14.8366 34.7756C14.7438 34.8646 14.6321 34.9091 14.5014 34.9091ZM16.7294 37.375V40H16.0589V35.6364H16.7067V36.3182H16.7635C16.8658 36.0966 17.0211 35.9186 17.2294 35.7841C17.4377 35.6477 17.7067 35.5795 18.0362 35.5795C18.3317 35.5795 18.5902 35.6402 18.8118 35.7614C19.0334 35.8807 19.2057 36.0625 19.3288 36.3068C19.4519 36.5492 19.5135 36.8561 19.5135 37.2273V40H18.843V37.2727C18.843 36.9299 18.754 36.6629 18.576 36.4716C18.398 36.2784 18.1536 36.1818 17.843 36.1818C17.629 36.1818 17.4377 36.2282 17.2692 36.321C17.1025 36.4138 16.9709 36.5492 16.8743 36.7273C16.7777 36.9053 16.7294 37.1212 16.7294 37.375ZM24.8864 35.6364V36.2045H22.625V35.6364H24.8864ZM23.2841 34.5909H23.9545V38.75C23.9545 38.9394 23.982 39.0814 24.0369 39.1761C24.0938 39.2689 24.1657 39.3314 24.2528 39.3636C24.3419 39.3939 24.4356 39.4091 24.5341 39.4091C24.608 39.4091 24.6686 39.4053 24.7159 39.3977C24.7633 39.3883 24.8011 39.3807 24.8295 39.375L24.9659 39.9773C24.9205 39.9943 24.857 40.0114 24.7756 40.0284C24.6941 40.0473 24.5909 40.0568 24.4659 40.0568C24.2765 40.0568 24.0909 40.0161 23.9091 39.9347C23.7292 39.8532 23.5795 39.7292 23.4602 39.5625C23.3428 39.3958 23.2841 39.1856 23.2841 38.9318V34.5909ZM27.6207 40.0909C27.2268 40.0909 26.8812 39.9972 26.5838 39.8097C26.2884 39.6222 26.0573 39.3598 25.8906 39.0227C25.7259 38.6856 25.6435 38.2917 25.6435 37.8409C25.6435 37.3864 25.7259 36.9896 25.8906 36.6506C26.0573 36.3116 26.2884 36.0483 26.5838 35.8608C26.8812 35.6733 27.2268 35.5795 27.6207 35.5795C28.0147 35.5795 28.3594 35.6733 28.6548 35.8608C28.9522 36.0483 29.1832 36.3116 29.348 36.6506C29.5147 36.9896 29.598 37.3864 29.598 37.8409C29.598 38.2917 29.5147 38.6856 29.348 39.0227C29.1832 39.3598 28.9522 39.6222 28.6548 39.8097C28.3594 39.9972 28.0147 40.0909 27.6207 40.0909ZM27.6207 39.4886C27.92 39.4886 28.1662 39.4119 28.3594 39.2585C28.5526 39.1051 28.6955 38.9034 28.7884 38.6534C28.8812 38.4034 28.9276 38.1326 28.9276 37.8409C28.9276 37.5492 28.8812 37.2775 28.7884 37.0256C28.6955 36.7737 28.5526 36.5701 28.3594 36.4148C28.1662 36.2595 27.92 36.1818 27.6207 36.1818C27.3215 36.1818 27.0753 36.2595 26.8821 36.4148C26.6889 36.5701 26.5459 36.7737 26.4531 37.0256C26.3603 37.2775 26.3139 37.5492 26.3139 37.8409C26.3139 38.1326 26.3603 38.4034 26.4531 38.6534C26.5459 38.9034 26.6889 39.1051 26.8821 39.2585C27.0753 39.4119 27.3215 39.4886 27.6207 39.4886ZM34.0192 40L32.4283 34.1818H33.1442L34.3601 38.9205H34.4169L35.6555 34.1818H36.451L37.6896 38.9205H37.7464L38.9624 34.1818H39.6783L38.0874 40H37.3601L36.076 35.3636H36.0305L34.7464 40H34.0192ZM40.4652 40V35.6364H41.1357V40H40.4652ZM40.8061 34.9091C40.6754 34.9091 40.5627 34.8646 40.468 34.7756C40.3752 34.6866 40.3288 34.5795 40.3288 34.4545C40.3288 34.3295 40.3752 34.2225 40.468 34.1335C40.5627 34.0445 40.6754 34 40.8061 34C40.9368 34 41.0485 34.0445 41.1413 34.1335C41.236 34.2225 41.2834 34.3295 41.2834 34.4545C41.2834 34.5795 41.236 34.6866 41.1413 34.7756C41.0485 34.8646 40.9368 34.9091 40.8061 34.9091ZM43.0341 37.375V40H42.3636V35.6364H43.0114V36.3182H43.0682C43.1705 36.0966 43.3258 35.9186 43.5341 35.7841C43.7424 35.6477 44.0114 35.5795 44.3409 35.5795C44.6364 35.5795 44.8949 35.6402 45.1165 35.7614C45.3381 35.8807 45.5104 36.0625 45.6335 36.3068C45.7566 36.5492 45.8182 36.8561 45.8182 37.2273V40H45.1477V37.2727C45.1477 36.9299 45.0587 36.6629 44.8807 36.4716C44.7027 36.2784 44.4583 36.1818 44.1477 36.1818C43.9337 36.1818 43.7424 36.2282 43.5739 36.321C43.4072 36.4138 43.2756 36.5492 43.179 36.7273C43.0824 36.9053 43.0341 37.1212 43.0341 37.375Z" fill="#0F172A"/>
</svg>
