<!-- sample rectangle -->
<svg width="48" height="52" viewBox="0 0 48 52" fill="none" xmlns="http://www.w3.org/2000/svg">
<path d="M20 19.9996L28 11.9996M21.3334 12.6663C21.3334 13.0345 21.0349 13.333 20.6667 13.333C20.2985 13.333 20 13.0345 20 12.6663C20 12.2981 20.2985 11.9996 20.6667 11.9996C21.0349 11.9996 21.3334 12.2981 21.3334 12.6663ZM28 19.333C28 19.7012 27.7016 19.9996 27.3334 19.9996C26.9652 19.9996 26.6667 19.7012 26.6667 19.333C26.6667 18.9648 26.9652 18.6663 27.3334 18.6663C27.7016 18.6663 28 18.9648 28 19.333ZM14.6667 9.59964C14.6667 8.82167 14.9757 8.07557 15.5258 7.52546C16.0759 6.97535 16.822 6.6663 17.6 6.6663H18.9333C19.7079 6.66586 20.4508 6.35911 21 5.81297L21.9333 4.87964C22.2059 4.60551 22.53 4.38796 22.887 4.23951C23.244 4.09107 23.6267 4.01465 24.0133 4.01465C24.3999 4.01465 24.7827 4.09107 25.1397 4.23951C25.4966 4.38796 25.8207 4.60551 26.0933 4.87964L27.0267 5.81297C27.5759 6.35911 28.3188 6.66586 29.0933 6.6663H30.4267C31.2046 6.6663 31.9507 6.97535 32.5009 7.52546C33.051 8.07557 33.36 8.82167 33.36 9.59964V10.933C33.3604 11.7075 33.6672 12.4504 34.2133 12.9996L35.1467 13.933C35.4208 14.2056 35.6383 14.5297 35.7868 14.8866C35.9352 15.2436 36.0117 15.6264 36.0117 16.013C36.0117 16.3996 35.9352 16.7824 35.7868 17.1393C35.6383 17.4963 35.4208 17.8204 35.1467 18.093L34.2133 19.0263C33.6672 19.5755 33.3604 20.3184 33.36 21.093V22.4263C33.36 23.2043 33.051 23.9504 32.5009 24.5005C31.9507 25.0506 31.2046 25.3596 30.4267 25.3596H29.0933C28.3188 25.3601 27.5759 25.6668 27.0267 26.213L26.0933 27.1463C25.8207 27.4204 25.4966 27.638 25.1397 27.7864C24.7827 27.9349 24.3999 28.0113 24.0133 28.0113C23.6267 28.0113 23.244 27.9349 22.887 27.7864C22.53 27.638 22.2059 27.4204 21.9333 27.1463L21 26.213C20.4508 25.6668 19.7079 25.3601 18.9333 25.3596H17.6C16.822 25.3596 16.0759 25.0506 15.5258 24.5005C14.9757 23.9504 14.6667 23.2043 14.6667 22.4263V21.093C14.6662 20.3184 14.3595 19.5755 13.8133 19.0263L12.88 18.093C12.6059 17.8204 12.3883 17.4963 12.2399 17.1393C12.0914 16.7824 12.015 16.3996 12.015 16.013C12.015 15.6264 12.0914 15.2436 12.2399 14.8866C12.3883 14.5297 12.6059 14.2056 12.88 13.933L13.8133 12.9996C14.3595 12.4504 14.6662 11.7075 14.6667 10.933V9.59964Z" stroke="#484848" stroke-width="2" stroke-linecap="round" stroke-linejoin="round"/>
<path d="M10.859 35.6364C10.8249 35.3485 10.6867 35.125 10.4442 34.9659C10.2018 34.8068 9.90447 34.7273 9.5522 34.7273C9.29463 34.7273 9.06925 34.7689 8.87607 34.8523C8.68478 34.9356 8.53516 35.0502 8.4272 35.196C8.32114 35.3419 8.26811 35.5076 8.26811 35.6932C8.26811 35.8485 8.30504 35.982 8.37891 36.0938C8.45466 36.2036 8.55125 36.2955 8.66868 36.3693C8.7861 36.4413 8.90921 36.5009 9.038 36.5483C9.16679 36.5937 9.28516 36.6307 9.39311 36.6591L9.98402 36.8182C10.1355 36.858 10.3041 36.9129 10.4897 36.983C10.6772 37.053 10.8562 37.1487 11.0266 37.2699C11.199 37.3892 11.341 37.5426 11.4528 37.7301C11.5645 37.9176 11.6204 38.1477 11.6204 38.4205C11.6204 38.7348 11.538 39.0189 11.3732 39.2727C11.2103 39.5265 10.9717 39.7282 10.6573 39.8778C10.3448 40.0275 9.96508 40.1023 9.51811 40.1023C9.10144 40.1023 8.74065 40.035 8.43572 39.9006C8.13269 39.7661 7.89406 39.5786 7.71982 39.3381C7.54747 39.0975 7.44993 38.8182 7.4272 38.5H8.15447C8.17341 38.7197 8.24728 38.9015 8.37607 39.0455C8.50675 39.1875 8.67152 39.2936 8.87038 39.3636C9.07114 39.4318 9.28705 39.4659 9.51811 39.4659C9.78705 39.4659 10.0285 39.4223 10.2425 39.3352C10.4566 39.2462 10.6261 39.1231 10.7511 38.9659C10.8761 38.8068 10.9386 38.6212 10.9386 38.4091C10.9386 38.2159 10.8846 38.0587 10.7766 37.9375C10.6687 37.8163 10.5266 37.7178 10.3505 37.642C10.1744 37.5663 9.98402 37.5 9.77947 37.4432L9.06357 37.2386C8.60902 37.108 8.24917 36.9214 7.98402 36.679C7.71887 36.4366 7.58629 36.1193 7.58629 35.7273C7.58629 35.4015 7.67436 35.1174 7.8505 34.875C8.02853 34.6307 8.26716 34.4413 8.56641 34.3068C8.86754 34.1705 9.20372 34.1023 9.57493 34.1023C9.94993 34.1023 10.2833 34.1695 10.5749 34.304C10.8666 34.4366 11.0977 34.6184 11.2681 34.8494C11.4405 35.0805 11.5314 35.3428 11.5408 35.6364H10.859ZM12.6879 41.6364V35.6364H13.3356V36.3295H13.4151C13.4644 36.2538 13.5326 36.1572 13.6197 36.0398C13.7087 35.9205 13.8356 35.8144 14.0004 35.7216C14.167 35.6269 14.3924 35.5795 14.6765 35.5795C15.0439 35.5795 15.3678 35.6714 15.6481 35.8551C15.9284 36.0388 16.1471 36.2992 16.3043 36.6364C16.4615 36.9735 16.5401 37.3712 16.5401 37.8295C16.5401 38.2917 16.4615 38.6922 16.3043 39.0312C16.1471 39.3684 15.9293 39.6297 15.6509 39.8153C15.3725 39.9991 15.0515 40.0909 14.6879 40.0909C14.4076 40.0909 14.1831 40.0445 14.0146 39.9517C13.846 39.857 13.7163 39.75 13.6254 39.6307C13.5344 39.5095 13.4644 39.4091 13.4151 39.3295H13.3583V41.6364H12.6879ZM13.3469 37.8182C13.3469 38.1477 13.3952 38.4384 13.4918 38.6903C13.5884 38.9403 13.7295 39.1364 13.9151 39.2784C14.1007 39.4186 14.328 39.4886 14.5969 39.4886C14.8772 39.4886 15.1112 39.4148 15.2987 39.267C15.488 39.1174 15.6301 38.9167 15.7248 38.6648C15.8214 38.411 15.8697 38.1288 15.8697 37.8182C15.8697 37.5114 15.8223 37.2348 15.7276 36.9886C15.6348 36.7405 15.4937 36.5445 15.3043 36.4006C15.1168 36.2547 14.881 36.1818 14.5969 36.1818C14.3242 36.1818 14.0951 36.2509 13.9094 36.3892C13.7238 36.5256 13.5837 36.7169 13.489 36.9631C13.3943 37.2074 13.3469 37.4924 13.3469 37.8182ZM19.3356 40.0909C18.9416 40.0909 18.596 39.9972 18.2987 39.8097C18.0032 39.6222 17.7721 39.3598 17.6055 39.0227C17.4407 38.6856 17.3583 38.2917 17.3583 37.8409C17.3583 37.3864 17.4407 36.9896 17.6055 36.6506C17.7721 36.3116 18.0032 36.0483 18.2987 35.8608C18.596 35.6733 18.9416 35.5795 19.3356 35.5795C19.7295 35.5795 20.0742 35.6733 20.3697 35.8608C20.667 36.0483 20.8981 36.3116 21.0629 36.6506C21.2295 36.9896 21.3129 37.3864 21.3129 37.8409C21.3129 38.2917 21.2295 38.6856 21.0629 39.0227C20.8981 39.3598 20.667 39.6222 20.3697 39.8097C20.0742 39.9972 19.7295 40.0909 19.3356 40.0909ZM19.3356 39.4886C19.6348 39.4886 19.881 39.4119 20.0742 39.2585C20.2674 39.1051 20.4104 38.9034 20.5032 38.6534C20.596 38.4034 20.6424 38.1326 20.6424 37.8409C20.6424 37.5492 20.596 37.2775 20.5032 37.0256C20.4104 36.7737 20.2674 36.5701 20.0742 36.4148C19.881 36.2595 19.6348 36.1818 19.3356 36.1818C19.0363 36.1818 18.7901 36.2595 18.5969 36.4148C18.4038 36.5701 18.2608 36.7737 18.168 37.0256C18.0752 37.2775 18.0288 37.5492 18.0288 37.8409C18.0288 38.1326 18.0752 38.4034 18.168 38.6534C18.2608 38.9034 18.4038 39.1051 18.5969 39.2585C18.7901 39.4119 19.0363 39.4886 19.3356 39.4886ZM24.234 35.6364V36.2045H21.9727V35.6364H24.234ZM22.6317 34.5909H23.3022V38.75C23.3022 38.9394 23.3297 39.0814 23.3846 39.1761C23.4414 39.2689 23.5134 39.3314 23.6005 39.3636C23.6895 39.3939 23.7833 39.4091 23.8817 39.4091C23.9556 39.4091 24.0162 39.4053 24.0636 39.3977C24.1109 39.3883 24.1488 39.3807 24.1772 39.375L24.3136 39.9773C24.2681 39.9943 24.2047 40.0114 24.1232 40.0284C24.0418 40.0473 23.9386 40.0568 23.8136 40.0568C23.6242 40.0568 23.4386 40.0161 23.2567 39.9347C23.0768 39.8532 22.9272 39.7292 22.8079 39.5625C22.6905 39.3958 22.6317 39.1856 22.6317 38.9318V34.5909ZM26.0067 34.1818V40H25.3363V34.1818H26.0067ZM27.2347 40V35.6364H27.9052V40H27.2347ZM27.5756 34.9091C27.445 34.9091 27.3323 34.8646 27.2376 34.7756C27.1448 34.6866 27.0984 34.5795 27.0984 34.4545C27.0984 34.3295 27.1448 34.2225 27.2376 34.1335C27.3323 34.0445 27.445 34 27.5756 34C27.7063 34 27.8181 34.0445 27.9109 34.1335C28.0056 34.2225 28.0529 34.3295 28.0529 34.4545C28.0529 34.5795 28.0056 34.6866 27.9109 34.7756C27.8181 34.8646 27.7063 34.9091 27.5756 34.9091ZM30.8945 41.7273C30.5707 41.7273 30.2923 41.6856 30.0593 41.6023C29.8263 41.5208 29.6322 41.4129 29.4769 41.2784C29.3235 41.1458 29.2013 41.0038 29.1104 40.8523L29.6445 40.4773C29.7051 40.5568 29.7818 40.6477 29.8746 40.75C29.9674 40.8542 30.0943 40.9441 30.2553 41.0199C30.4182 41.0975 30.6313 41.1364 30.8945 41.1364C31.2468 41.1364 31.5375 41.0511 31.7667 40.8807C31.9959 40.7102 32.1104 40.4432 32.1104 40.0795V39.1932H32.0536C32.0044 39.2727 31.9343 39.3712 31.8434 39.4886C31.7544 39.6042 31.6256 39.7074 31.457 39.7983C31.2904 39.8873 31.065 39.9318 30.7809 39.9318C30.4286 39.9318 30.1123 39.8485 29.832 39.6818C29.5536 39.5152 29.333 39.2727 29.1701 38.9545C29.0091 38.6364 28.9286 38.25 28.9286 37.7955C28.9286 37.3485 29.0072 36.9593 29.1644 36.6278C29.3216 36.2945 29.5404 36.0369 29.8207 35.8551C30.101 35.6714 30.4248 35.5795 30.7923 35.5795C31.0763 35.5795 31.3017 35.6269 31.4684 35.7216C31.637 35.8144 31.7657 35.9205 31.8548 36.0398C31.9457 36.1572 32.0157 36.2538 32.065 36.3295H32.1332V35.6364H32.7809V40.125C32.7809 40.5 32.6957 40.8049 32.5252 41.0398C32.3567 41.2765 32.1294 41.4498 31.8434 41.5597C31.5593 41.6714 31.243 41.7273 30.8945 41.7273ZM30.8718 39.3295C31.1407 39.3295 31.368 39.268 31.5536 39.1449C31.7392 39.0218 31.8803 38.8447 31.9769 38.6136C32.0735 38.3826 32.1218 38.1061 32.1218 37.7841C32.1218 37.4697 32.0745 37.1922 31.9798 36.9517C31.8851 36.7112 31.7449 36.5227 31.5593 36.3864C31.3737 36.25 31.1445 36.1818 30.8718 36.1818C30.5877 36.1818 30.351 36.2538 30.1616 36.3977C29.9741 36.5417 29.833 36.7348 29.7383 36.9773C29.6455 37.2197 29.5991 37.4886 29.5991 37.7841C29.5991 38.0871 29.6464 38.3551 29.7411 38.5881C29.8377 38.8191 29.9798 39.0009 30.1673 39.1335C30.3567 39.2642 30.5915 39.3295 30.8718 39.3295ZM34.6786 37.375V40H34.0082V34.1818H34.6786V36.3182H34.7354C34.8377 36.0928 34.9911 35.9138 35.1957 35.7812C35.4021 35.6468 35.6767 35.5795 36.0195 35.5795C36.3169 35.5795 36.5773 35.6392 36.8008 35.7585C37.0243 35.8759 37.1976 36.0568 37.3207 36.3011C37.4457 36.5436 37.5082 36.8523 37.5082 37.2273V40H36.8377V37.2727C36.8377 36.9261 36.7478 36.6581 36.5678 36.4688C36.3898 36.2775 36.1426 36.1818 35.8263 36.1818C35.6067 36.1818 35.4097 36.2282 35.2354 36.321C35.0631 36.4138 34.9267 36.5492 34.8263 36.7273C34.7279 36.9053 34.6786 37.1212 34.6786 37.375ZM40.6325 35.6364V36.2045H38.3711V35.6364H40.6325ZM39.0302 34.5909H39.7006V38.75C39.7006 38.9394 39.7281 39.0814 39.783 39.1761C39.8398 39.2689 39.9118 39.3314 39.9989 39.3636C40.0879 39.3939 40.1817 39.4091 40.2802 39.4091C40.354 39.4091 40.4147 39.4053 40.462 39.3977C40.5094 39.3883 40.5472 39.3807 40.5756 39.375L40.712 39.9773C40.6665 39.9943 40.6031 40.0114 40.5217 40.0284C40.4402 40.0473 40.337 40.0568 40.212 40.0568C40.0226 40.0568 39.837 40.0161 39.6552 39.9347C39.4753 39.8532 39.3256 39.7292 39.2063 39.5625C39.0889 39.3958 39.0302 39.1856 39.0302 38.9318V34.5909ZM19.9574 47.0909C19.9574 47.7045 19.8466 48.2348 19.625 48.6818C19.4034 49.1288 19.0994 49.4735 18.7131 49.7159C18.3267 49.9583 17.8854 50.0795 17.3892 50.0795C16.893 50.0795 16.4517 49.9583 16.0653 49.7159C15.679 49.4735 15.375 49.1288 15.1534 48.6818C14.9318 48.2348 14.821 47.7045 14.821 47.0909C14.821 46.4773 14.9318 45.947 15.1534 45.5C15.375 45.053 15.679 44.7083 16.0653 44.4659C16.4517 44.2235 16.893 44.1023 17.3892 44.1023C17.8854 44.1023 18.3267 44.2235 18.7131 44.4659C19.0994 44.7083 19.4034 45.053 19.625 45.5C19.8466 45.947 19.9574 46.4773 19.9574 47.0909ZM19.2756 47.0909C19.2756 46.5871 19.1913 46.1619 19.0227 45.8153C18.8561 45.4688 18.6297 45.2064 18.3438 45.0284C18.0597 44.8504 17.7415 44.7614 17.3892 44.7614C17.0369 44.7614 16.7178 44.8504 16.4318 45.0284C16.1477 45.2064 15.9214 45.4688 15.7528 45.8153C15.5862 46.1619 15.5028 46.5871 15.5028 47.0909C15.5028 47.5947 15.5862 48.0199 15.7528 48.3665C15.9214 48.7131 16.1477 48.9754 16.4318 49.1534C16.7178 49.3314 17.0369 49.4205 17.3892 49.4205C17.7415 49.4205 18.0597 49.3314 18.3438 49.1534C18.6297 48.9754 18.8561 48.7131 19.0227 48.3665C19.1913 48.0199 19.2756 47.5947 19.2756 47.0909ZM22.9943 45.6364V46.2045H20.642V45.6364H22.9943ZM21.3466 50V45.0341C21.3466 44.7841 21.4053 44.5758 21.5227 44.4091C21.6402 44.2424 21.7926 44.1174 21.9801 44.0341C22.1676 43.9508 22.3655 43.9091 22.5739 43.9091C22.7386 43.9091 22.8731 43.9223 22.9773 43.9489C23.0814 43.9754 23.1591 44 23.2102 44.0227L23.017 44.6023C22.983 44.5909 22.9356 44.5767 22.875 44.5597C22.8163 44.5426 22.7386 44.5341 22.642 44.5341C22.4205 44.5341 22.2604 44.59 22.1619 44.7017C22.0653 44.8134 22.017 44.9773 22.017 45.1932V50H21.3466ZM25.8771 45.6364V46.2045H23.5249V45.6364H25.8771ZM24.2294 50V45.0341C24.2294 44.7841 24.2881 44.5758 24.4055 44.4091C24.523 44.2424 24.6754 44.1174 24.8629 44.0341C25.0504 43.9508 25.2483 43.9091 25.4567 43.9091C25.6214 43.9091 25.7559 43.9223 25.8601 43.9489C25.9643 43.9754 26.0419 44 26.093 44.0227L25.8999 44.6023C25.8658 44.5909 25.8184 44.5767 25.7578 44.5597C25.6991 44.5426 25.6214 44.5341 25.5249 44.5341C25.3033 44.5341 25.1432 44.59 25.0447 44.7017C24.9482 44.8134 24.8999 44.9773 24.8999 45.1932V50H24.2294ZM28.4666 50.0909C28.0462 50.0909 27.6835 49.9981 27.3786 49.8125C27.0755 49.625 26.8416 49.3636 26.6768 49.0284C26.514 48.6913 26.4325 48.2992 26.4325 47.8523C26.4325 47.4053 26.514 47.0114 26.6768 46.6705C26.8416 46.3277 27.0708 46.0606 27.3643 45.8693C27.6598 45.6761 28.0045 45.5795 28.3984 45.5795C28.6257 45.5795 28.8501 45.6174 29.0717 45.6932C29.2933 45.7689 29.495 45.892 29.6768 46.0625C29.8587 46.2311 30.0036 46.4545 30.1115 46.733C30.2195 47.0114 30.2734 47.3542 30.2734 47.7614V48.0455H26.9098V47.4659H29.5916C29.5916 47.2197 29.5424 47 29.4439 46.8068C29.3473 46.6136 29.209 46.4612 29.0291 46.3494C28.8511 46.2377 28.6409 46.1818 28.3984 46.1818C28.1314 46.1818 27.9003 46.2481 27.7053 46.3807C27.5121 46.5114 27.3634 46.6818 27.2592 46.892C27.1551 47.1023 27.103 47.3277 27.103 47.5682V47.9545C27.103 48.2841 27.1598 48.5634 27.2734 48.7926C27.389 49.0199 27.549 49.1932 27.7536 49.3125C27.9581 49.4299 28.1958 49.4886 28.4666 49.4886C28.6428 49.4886 28.8018 49.464 28.9439 49.4148C29.0878 49.3636 29.2119 49.2879 29.3161 49.1875C29.4202 49.0852 29.5007 48.9583 29.5575 48.8068L30.2053 48.9886C30.1371 49.2083 30.0225 49.4015 29.8615 49.5682C29.7005 49.733 29.5017 49.8617 29.2649 49.9545C29.0282 50.0455 28.7621 50.0909 28.4666 50.0909ZM31.2933 50V45.6364H31.9411V46.2955H31.9865C32.0661 46.0795 32.21 45.9044 32.4183 45.7699C32.6267 45.6354 32.8615 45.5682 33.1229 45.5682C33.1721 45.5682 33.2337 45.5691 33.3075 45.571C33.3814 45.5729 33.4373 45.5758 33.4751 45.5795V46.2614C33.4524 46.2557 33.4003 46.2472 33.3189 46.2358C33.2393 46.2225 33.1551 46.2159 33.0661 46.2159C32.8539 46.2159 32.6645 46.2604 32.4979 46.3494C32.3331 46.4366 32.2024 46.5578 32.1058 46.7131C32.0111 46.8665 31.9638 47.0417 31.9638 47.2386V50H31.2933Z" fill="#0F172A"/>
</svg>
